<mxfile host="65bd71144e">
    <diagram id="DqVzAmPuVnFWP3jxe1LD" name="Page-1">
        <mxGraphModel dx="311" dy="557" grid="1" gridSize="10" guides="1" tooltips="1" connect="1" arrows="1" fold="1" page="1" pageScale="1" pageWidth="827" pageHeight="1169" math="0" shadow="0">
            <root>
                <mxCell id="0"/>
                <mxCell id="1" parent="0"/>
                <mxCell id="32" value="" style="edgeStyle=none;html=1;fontColor=#000000;" edge="1" parent="1" source="33" target="35">
                    <mxGeometry relative="1" as="geometry"/>
                </mxCell>
                <mxCell id="33" value="INICIO" style="ellipse;whiteSpace=wrap;html=1;fillColor=#0050ef;strokeColor=#001DBC;fontColor=#ffffff;" vertex="1" parent="1">
                    <mxGeometry x="620" y="230" width="120" height="80" as="geometry"/>
                </mxCell>
                <mxCell id="34" value="" style="edgeStyle=none;html=1;fontColor=#000000;" edge="1" parent="1" source="35" target="38">
                    <mxGeometry relative="1" as="geometry"/>
                </mxCell>
                <mxCell id="35" value="A,B,C" style="shape=parallelogram;perimeter=parallelogramPerimeter;whiteSpace=wrap;html=1;fixedSize=1;fillColor=#6a00ff;strokeColor=#3700CC;fontColor=#ffffff;" vertex="1" parent="1">
                    <mxGeometry x="620" y="400" width="120" height="60" as="geometry"/>
                </mxCell>
                <mxCell id="36" value="" style="edgeStyle=none;html=1;fontColor=#000000;" edge="1" parent="1" source="38" target="40">
                    <mxGeometry relative="1" as="geometry">
                        <Array as="points">
                            <mxPoint x="950" y="580"/>
                        </Array>
                    </mxGeometry>
                </mxCell>
                <mxCell id="37" value="" style="edgeStyle=none;html=1;fontColor=#000000;" edge="1" parent="1" source="38" target="42">
                    <mxGeometry relative="1" as="geometry">
                        <Array as="points">
                            <mxPoint x="420" y="580"/>
                        </Array>
                    </mxGeometry>
                </mxCell>
                <mxCell id="38" value="A+B=C" style="rhombus;whiteSpace=wrap;html=1;fillColor=#60a917;strokeColor=#2D7600;fontColor=#ffffff;" vertex="1" parent="1">
                    <mxGeometry x="615" y="530" width="130" height="100" as="geometry"/>
                </mxCell>
                <mxCell id="39" value="" style="edgeStyle=none;html=1;exitX=0.5;exitY=0.85;exitDx=0;exitDy=0;exitPerimeter=0;fontColor=#000000;" edge="1" parent="1" source="40">
                    <mxGeometry relative="1" as="geometry">
                        <mxPoint x="680" y="830" as="targetPoint"/>
                        <Array as="points">
                            <mxPoint x="950" y="830"/>
                        </Array>
                    </mxGeometry>
                </mxCell>
                <mxCell id="40" value="RESULTADO" style="shape=document;whiteSpace=wrap;html=1;boundedLbl=1;fillColor=#d80073;strokeColor=#A50040;fontColor=#ffffff;" vertex="1" parent="1">
                    <mxGeometry x="890" y="670" width="120" height="80" as="geometry"/>
                </mxCell>
                <mxCell id="41" value="" style="edgeStyle=none;html=1;exitX=0.5;exitY=0.825;exitDx=0;exitDy=0;exitPerimeter=0;fontColor=#000000;" edge="1" parent="1" source="42">
                    <mxGeometry relative="1" as="geometry">
                        <mxPoint x="690" y="830" as="targetPoint"/>
                        <Array as="points">
                            <mxPoint x="420" y="830"/>
                        </Array>
                    </mxGeometry>
                </mxCell>
                <mxCell id="42" value="RESULTADO" style="shape=document;whiteSpace=wrap;html=1;boundedLbl=1;fillColor=#1ba1e2;strokeColor=#006EAF;fontColor=#ffffff;" vertex="1" parent="1">
                    <mxGeometry x="360" y="670" width="120" height="80" as="geometry"/>
                </mxCell>
                <mxCell id="43" value="TRUE" style="text;html=1;strokeColor=none;fillColor=none;align=center;verticalAlign=middle;whiteSpace=wrap;rounded=0;fontColor=#000000;" vertex="1" parent="1">
                    <mxGeometry x="790" y="550" width="60" height="30" as="geometry"/>
                </mxCell>
                <mxCell id="44" value="FALSE" style="text;html=1;strokeColor=none;fillColor=none;align=center;verticalAlign=middle;whiteSpace=wrap;rounded=0;fontColor=#000000;" vertex="1" parent="1">
                    <mxGeometry x="470" y="550" width="60" height="30" as="geometry"/>
                </mxCell>
                <mxCell id="45" value="FIN" style="ellipse;whiteSpace=wrap;html=1;fillColor=#a20025;strokeColor=#6F0000;fontColor=#ffffff;" vertex="1" parent="1">
                    <mxGeometry x="625" y="870" width="120" height="80" as="geometry"/>
                </mxCell>
                <mxCell id="46" value="" style="endArrow=classic;html=1;fontColor=#000000;" edge="1" parent="1">
                    <mxGeometry width="50" height="50" relative="1" as="geometry">
                        <mxPoint x="685" y="830" as="sourcePoint"/>
                        <mxPoint x="685" y="870" as="targetPoint"/>
                    </mxGeometry>
                </mxCell>
            </root>
        </mxGraphModel>
    </diagram>
</mxfile>